<svg width="110" height="23" viewBox="0 0 110 23" fill="none" xmlns="http://www.w3.org/2000/svg">
<path d="M99.0875 6.61652L98.8831 6.68116C98.0882 5.03791 96.9527 3.72981 95.4764 2.75684C94.0229 1.78386 92.1947 1.29737 89.9916 1.29737C88.7652 1.29737 87.5956 1.54601 86.4828 2.04328C85.3699 2.51899 84.3934 3.20007 83.553 4.08653C82.7354 4.95139 82.0768 6.00004 81.5771 7.23248C81.0775 8.46492 80.8277 9.82708 80.8277 11.319C80.8277 12.8108 81.0775 14.173 81.5771 15.4054C82.0768 16.6379 82.7354 17.6973 83.553 18.5838C84.3934 19.4486 85.3699 20.1189 86.4828 20.5946C87.5956 21.0703 88.7653 21.3081 89.9917 21.3081C92.1719 21.3081 93.9434 20.9838 95.3061 20.3351C96.6915 19.6649 97.8611 18.6487 98.815 17.2865L99.0194 17.3512L98.9515 19.4268C98.4292 19.9458 97.8273 20.4106 97.146 20.8214C96.4647 21.2106 95.7266 21.5457 94.9317 21.8268C94.1595 22.0863 93.3532 22.2809 92.5129 22.4106C91.6726 22.5621 90.8323 22.6378 89.992 22.6378C88.2432 22.6378 86.5739 22.3676 84.9841 21.827C83.3943 21.2864 81.9976 20.5297 80.7939 19.5567C79.5902 18.5622 78.6363 17.373 77.9323 15.9892C77.2282 14.5838 76.8762 13.027 76.8762 11.3189C76.8762 9.61082 77.2282 8.06489 77.9323 6.68113C78.6363 5.2757 79.5902 4.0757 80.7939 3.08114C81.9976 2.08653 83.3943 1.32977 84.9841 0.810859C86.5739 0.270305 88.2432 2.79675e-05 89.992 2.79675e-05C90.8323 2.79675e-05 91.6726 0.0648923 92.5129 0.194621C93.3532 0.324349 94.1594 0.529762 94.9316 0.810859C95.7265 1.07032 96.4647 1.40546 97.146 1.81628C97.8273 2.20547 98.4292 2.65952 98.9515 3.17843L99.0875 6.61652ZM24.0174 12.8111C23.7677 12.9191 23.5292 13.0597 23.302 13.233C23.0747 13.4058 22.9611 13.6436 22.9611 13.9465V17.9356C21.871 19.4275 20.4742 20.5843 18.7708 21.4059C17.0675 22.2275 15.1825 22.6384 13.1157 22.6384C11.367 22.6384 9.69771 22.3681 8.10791 21.8275C6.51813 21.287 5.12138 20.5302 3.91767 19.5573C2.71398 18.5627 1.7601 17.3735 1.05604 15.9897C0.352012 14.5844 0 13.0276 0 11.3195C0 9.61135 0.352012 8.06542 1.05604 6.68166C1.7601 5.27623 2.71398 4.07624 3.91767 3.08167C5.12138 2.08706 6.51813 1.33031 8.10791 0.811419C9.69769 0.270846 11.367 0.00055967 13.1157 0.00055967C13.956 0.00055967 14.7964 0.0654239 15.6367 0.195152C16.477 0.324881 17.2833 0.530294 18.0555 0.811391C18.8503 1.07085 19.5885 1.40599 20.2698 1.81682C20.9511 2.206 21.553 2.66005 22.0754 3.17897L22.2119 6.61677L22.0075 6.68141C21.2126 5.03815 20.077 3.73003 18.6008 2.75707C17.1472 1.78408 15.319 1.29759 13.116 1.29759C11.8896 1.29759 10.72 1.54624 9.60714 2.04353C8.49427 2.51922 7.51767 3.2003 6.67734 4.08676C5.85972 4.95163 5.20111 6.00029 4.7015 7.23273C4.20182 8.46515 3.95198 9.82731 3.95198 11.3192C3.95198 12.7894 4.19045 14.1408 4.6674 15.3732C5.16707 16.6056 5.8257 17.6651 6.6433 18.5516C7.4836 19.4165 8.46017 20.0975 9.57304 20.5949C10.6859 21.0705 11.8669 21.3083 13.116 21.3083C15.478 21.3083 17.4993 20.8759 19.1799 20.0111V13.9462C19.1799 13.6436 19.0551 13.4058 18.8054 13.2327C18.5781 13.0598 18.351 12.9192 18.124 12.8109L18.1552 12.6489C18.2686 12.6687 18.473 12.6902 18.7684 12.7135C19.0638 12.7333 19.3704 12.7549 19.6882 12.7782H22.6181C22.8906 12.7584 23.1518 12.7369 23.4017 12.7135C23.6513 12.6938 23.8443 12.6722 23.9806 12.6489L24.0174 12.8111ZM48.6924 0.681411C48.4652 0.789387 48.2381 0.929992 48.0111 1.10322C47.7839 1.27607 47.659 1.60039 47.6366 2.07619C47.6158 2.5951 47.5932 3.25457 47.5687 4.05458C47.5687 4.83297 47.5583 5.71944 47.5375 6.71398C47.5375 7.70861 47.5271 8.7897 47.5063 9.95725V13.5897C47.4856 14.9951 47.3038 16.1951 46.9611 17.1897C46.6204 18.1843 46.1662 19.0167 45.5984 19.687C45.0534 20.3572 44.4402 20.887 43.7588 21.2762C43.1002 21.6653 42.4415 21.9572 41.7829 22.1518C41.147 22.3682 40.5451 22.4979 39.9774 22.541C39.4096 22.6059 38.9667 22.6383 38.6488 22.6383C37.3542 22.6383 36.1051 22.4761 34.9014 22.1518C33.6977 21.8493 32.6416 21.3519 31.7332 20.6599C30.8247 19.968 30.098 19.0707 29.5529 17.968C29.0078 16.8654 28.7353 15.5248 28.7353 13.9464V10.2816V6.90858C28.7353 5.87073 28.7249 4.94101 28.7041 4.11941C28.7041 3.27616 28.6937 2.59507 28.673 2.07616C28.6522 1.60047 28.5274 1.27615 28.2984 1.1032C28.0712 0.930355 27.8441 0.789751 27.6171 0.681383L27.6483 0.519418C27.7617 0.539192 27.9435 0.560739 28.1936 0.584058C28.4661 0.603833 28.7386 0.62538 29.0112 0.648699C29.3066 0.648699 29.5905 0.658586 29.8629 0.67836H31.0893C31.3618 0.658586 31.6457 0.648699 31.9409 0.648699C32.2363 0.628924 32.5088 0.607377 32.7585 0.584058C33.031 0.564284 33.224 0.542737 33.3374 0.519418L33.3686 0.681383C33.1189 0.789359 32.8804 0.929964 32.6532 1.1032C32.4488 1.27604 32.3352 1.60036 32.3123 2.07616C32.2916 2.59507 32.2689 3.27616 32.2444 4.11941V13.9464C32.2444 16.3032 32.8236 18.0437 33.9818 19.168C35.1401 20.2923 36.8548 20.8545 39.1259 20.8545C39.7845 20.8545 40.534 20.7787 41.3744 20.6273C42.2147 20.4544 42.9982 20.1085 43.725 19.5894C44.4744 19.0705 45.099 18.3354 45.5987 17.3841C46.121 16.4327 46.3822 15.1678 46.3822 13.5895C46.3822 11.8814 46.3718 10.4219 46.351 9.21112C46.351 7.9787 46.3407 6.93005 46.3199 6.06517C46.3199 5.1787 46.3095 4.42194 46.2887 3.7949C46.268 3.16789 46.2453 2.59493 46.2208 2.07599C46.2 1.6003 46.0752 1.27598 45.8462 1.10303C45.619 0.930188 45.3919 0.789574 45.1649 0.681187L45.1961 0.51925C45.4458 0.562344 45.7297 0.605652 46.0477 0.649174C46.3656 0.668949 46.6608 0.678836 46.9335 0.678836C47.1832 0.678836 47.4671 0.668949 47.7851 0.649174C48.1258 0.606081 48.4211 0.562773 48.6709 0.51925L48.6924 0.681411ZM73.4125 6.61652L73.2081 6.68116C72.4132 5.03791 71.2776 3.72981 69.8014 2.75684C68.3479 1.78386 66.5196 1.29737 64.3166 1.29737C63.0902 1.29737 61.9206 1.54601 60.8077 2.04328C59.6948 2.51899 58.7183 3.20007 57.878 4.08653C57.0604 4.95139 56.4017 6.00004 55.9021 7.23248C55.4024 8.46494 55.1526 9.8271 55.1526 11.319C55.1526 12.8108 55.4025 14.173 55.9021 15.4054C56.4018 16.6379 57.0604 17.6973 57.878 18.5838C58.7183 19.4486 59.6949 20.1189 60.8077 20.5946C61.9206 21.0703 63.0902 21.3081 64.3167 21.3081C66.4969 21.3081 68.2684 20.9838 69.6311 20.3351C71.0165 19.6649 72.1861 18.6487 73.14 17.2865L73.3443 17.3512L73.2765 19.4268C72.7541 19.9457 72.1522 20.4106 71.4709 20.8214C70.7895 21.2106 70.0514 21.5457 69.2565 21.8268C68.4843 22.0863 67.6781 22.2808 66.8377 22.4106C65.9974 22.5621 65.1571 22.6378 64.3168 22.6378C62.568 22.6378 60.8987 22.3675 59.309 21.827C57.7192 21.2864 56.3224 20.5297 55.1187 19.5567C53.915 18.5621 52.9611 17.3729 52.2571 15.9892C51.5531 14.5838 51.201 13.027 51.201 11.3189C51.201 9.61079 51.5531 8.06486 52.2571 6.6811C52.9611 5.27567 53.915 4.07568 55.1187 3.08111C56.3224 2.0865 57.7192 1.32975 59.309 0.810831C60.8988 0.270277 62.568 0 64.3168 0C65.1571 0 65.9974 0.0648643 66.8378 0.194593C67.6781 0.324321 68.4843 0.529734 69.2565 0.810831C70.0514 1.07029 70.7895 1.40543 71.4709 1.81626C72.1522 2.20544 72.754 2.65949 73.2764 3.17841L73.4125 6.61652ZM109.355 22.0868C109.242 22.067 109.049 22.0454 108.776 22.0221C108.527 22.0221 108.254 22.0122 107.959 21.9925C107.663 21.9925 107.38 21.9826 107.107 21.9628H105.063C104.791 21.9825 104.518 22.0041 104.246 22.0274C103.996 22.0472 103.803 22.0687 103.667 22.0921L103.636 21.9621C103.863 21.8541 104.09 21.7135 104.317 21.5403C104.544 21.3674 104.669 21.0431 104.691 20.5673C104.712 20.0484 104.723 19.5079 104.723 18.9457C104.743 18.3835 104.754 17.7457 104.754 17.0322V14.5997V11.3241V8.04846V5.58359C104.754 4.87008 104.743 4.24305 104.723 3.7025C104.723 3.14034 104.712 2.5998 104.691 2.08089C104.671 1.6052 104.546 1.28088 104.317 1.10793C104.09 0.913333 103.863 0.762039 103.636 0.654043L103.667 0.524147C103.803 0.567241 103.996 0.599673 104.246 0.621443C104.518 0.621443 104.791 0.631331 105.063 0.651105C105.359 0.67088 105.643 0.680767 105.915 0.680767H107.107C107.38 0.660993 107.664 0.651105 107.959 0.651105C108.254 0.631331 108.527 0.609784 108.776 0.586465C109.049 0.56669 109.242 0.545144 109.355 0.521824L109.387 0.651777C109.137 0.759753 108.898 0.911038 108.671 1.10563C108.467 1.27847 108.353 1.60279 108.33 2.07859C108.31 2.59751 108.287 3.13804 108.262 3.7002V18.9434C108.283 19.5056 108.306 20.0461 108.33 20.565C108.351 21.0407 108.465 21.365 108.671 21.538C108.898 21.7108 109.137 21.8514 109.387 21.9598L109.355 22.0868Z" fill="white"/>
</svg>
