<svg width="64" height="27" viewBox="0 0 64 27" fill="none" xmlns="http://www.w3.org/2000/svg">
<path d="M60.5359 25.8463L51.0822 0.0170967L51.0758 0H50.8892L48.9425 5.30781L45.3983 14.9708L45.39 14.9632C44.1617 13.8876 42.4287 13.2153 40.2462 12.9649L39.5806 12.8967L40.2409 12.8127C43.8401 12.1709 46.2595 9.91511 46.2595 7.19737C46.2595 3.47056 42.7272 0.86927 37.6675 0.86927H27.1399V1.05797H30.1989V20.3151L22.7697 0.0170333L22.763 0H22.5765L20.6296 5.30781L13.121 25.7799L13.0748 25.7852C12.9465 25.8009 12.8196 25.8133 12.694 25.8228C12.5051 25.8375 12.3173 25.8463 12.129 25.8463H4.5421L18.9637 1.0579L19.0709 0.871613H1.4327V8.53978H1.61985C1.65303 4.80473 3.84499 1.0579 8.68795 1.0579H14.5306L0 26.032H19.5755V18.6854H19.3884C19.3629 21.9408 17.5032 25.0329 13.4593 25.7311L13.3307 25.7529L16.4105 17.3524H25.0379L28.1467 25.8463H25.0801V26.0321H37.1166V25.8463H34.0368V13.0337H37.5905C41.2068 13.0337 43.281 14.6369 43.281 17.431V19.7038C43.281 19.9543 43.2981 20.3204 43.3171 20.6266V20.6377L41.407 25.8451H38.9118V26.0309H44.0769V25.8451H41.6085L43.3479 21.1033C43.3515 21.1491 43.3532 21.1767 43.3532 21.1767L43.4012 21.604L43.4474 21.8867C43.7376 23.6352 44.4116 24.9206 45.4499 25.707L45.5991 25.8146C46.388 26.3588 47.3682 26.6344 48.5142 26.6344C50.0322 26.6344 51.0444 26.2589 51.8801 25.375L51.7705 25.2726C51.0005 25.9779 50.3544 26.2636 49.5448 26.2636C48.1654 26.2636 47.4435 24.6032 47.4435 22.9658V19.7814C47.4508 18.9913 47.3261 18.2054 47.0745 17.4557L47.0401 17.357V17.3535H53.3506L56.4593 25.8475H53.3927V26.0332H63.8088V25.8475L60.5359 25.8463ZM16.4791 17.1666L20.7293 5.5794L24.9699 17.1666H16.4791ZM34.0387 12.8473V1.0579H36.7512C40.3747 1.0579 42.2877 3.19549 42.2877 7.23739C42.2877 11.5361 41.1896 12.8473 37.5905 12.8473H34.0387ZM46.9666 17.1666L46.9482 17.1208C46.6678 16.443 46.2595 15.8246 45.7453 15.2988L45.5677 15.1224L45.5487 15.1048L49.0395 5.5794L53.2801 17.1666H46.9666Z" fill="white"/>
</svg>
